<?xml version="1.0" encoding="utf-8"?>
<!-- Generator: Adobe Illustrator 24.1.0, SVG Export Plug-In . SVG Version: 6.00 Build 0)  -->
<svg version="1.1" xmlns="http://www.w3.org/2000/svg" xmlns:xlink="http://www.w3.org/1999/xlink" x="0px" y="0px"
	 viewBox="0 0 40 40" style="enable-background:new 0 0 40 40;" xml:space="preserve">
<style type="text/css">
	.st0{fill:#FFFFFF;}
	.st1{display:none;}
	.st2{display:inline;}
</style>
<g id="圖層_4">
	<circle class="st0" cx="20" cy="20" r="20"/>
</g>
<g id="圖層_1" class="st1">
	<g class="st2">
		<path d="M40,20C40,8.95,31.05,0,20,0C8.95,0,0,8.95,0,20c0,11.05,8.95,20,20,20c2.14,0,4.2-0.34,6.14-0.97l0.01,0.01
			c0.5-0.16,1-0.35,1.48-0.55c0.15-0.06,0.3-0.13,0.45-0.2c0.4-0.18,0.78-0.36,1.17-0.56c0.15-0.08,0.3-0.15,0.44-0.23
			c0.49-0.27,0.96-0.55,1.42-0.86c0.1-0.07,0.2-0.15,0.3-0.22c0.37-0.26,0.73-0.53,1.08-0.81c0.14-0.11,0.28-0.22,0.41-0.34
			c0.38-0.33,0.76-0.66,1.12-1.02c0.05-0.05,0.1-0.09,0.14-0.13c0.39-0.39,0.76-0.81,1.12-1.23c0.11-0.13,0.22-0.27,0.33-0.41
			c0.27-0.34,0.54-0.69,0.79-1.05c0.08-0.12,0.17-0.23,0.24-0.35c0.31-0.46,0.59-0.93,0.86-1.42c0.08-0.14,0.15-0.28,0.22-0.42
			c0.2-0.38,0.39-0.77,0.56-1.17c0.07-0.16,0.14-0.31,0.21-0.47c0.21-0.52,0.41-1.05,0.58-1.58c0.03-0.11,0.06-0.22,0.09-0.33
			c0.13-0.45,0.25-0.91,0.35-1.38c0.04-0.18,0.08-0.36,0.11-0.54c0.03-0.13,0.06-0.26,0.08-0.4l-0.02-0.02
			C39.88,22.26,40,21.14,40,20z M31.44,19.72c-0.01,0.18-0.04,0.42-0.09,0.69c-0.11,0.66-0.3,1.3-0.57,1.91
			c-0.09,0.2-0.19,0.4-0.3,0.6c-0.2,0.37-1.21,1.78-1.52,2.15c-0.1,0.12-0.21,0.24-0.32,0.36c-0.12,0.14-0.23,0.27-0.36,0.41
			c-0.14,0.15-0.3,0.3-0.45,0.45c-0.12,0.11-0.22,0.23-0.34,0.34c-0.16,0.15-0.35,0.31-0.53,0.47c-0.13,0.12-0.25,0.23-0.39,0.35
			c-0.19,0.16-0.39,0.31-0.59,0.47c-0.15,0.12-0.3,0.24-0.46,0.36c-0.21,0.16-0.44,0.31-0.66,0.47c-0.18,0.12-0.34,0.25-0.53,0.37
			c-0.23,0.15-0.48,0.31-0.73,0.47c-0.2,0.13-0.39,0.26-0.61,0.38c-0.25,0.15-0.53,0.31-0.8,0.46c-0.23,0.13-0.45,0.26-0.7,0.39
			c-0.28,0.15-0.58,0.3-0.87,0.45c-0.23,0.12-0.44,0.23-0.67,0.35v-0.01c-0.09,0.04-0.17,0.09-0.26,0.13
			c-0.44,0.21-0.95-0.14-0.89-0.63l0.24-2.15c0.04-0.34-0.21-0.65-0.55-0.69c-5.61-0.59-9.94-4.4-9.94-9.02
			c0-5.02,5.1-9.08,11.4-9.1v0c0.01,0,0.03,0,0.04,0c0.77,0,1.52,0.06,2.24,0.17c0.36,0.06,0.72,0.13,1.07,0.21
			c4.54,1.09,7.89,4.37,8.12,8.29c0.01,0.09,0.02,0.3,0.02,0.52C31.45,19.47,31.45,19.61,31.44,19.72z"/>
		<path d="M13.7,21.09v-3.83c0-0.32-0.26-0.59-0.59-0.59c-0.32,0-0.59,0.26-0.59,0.59v4.42c0,0.32,0.26,0.59,0.59,0.59h2.34
			c0.32,0,0.59-0.26,0.59-0.59c0-0.32-0.26-0.59-0.59-0.59H13.7z M13.7,21.09"/>
		<path d="M17.31,22.27h-0.26c-0.25,0-0.46-0.2-0.46-0.46v-4.68c0-0.25,0.2-0.46,0.46-0.46h0.26c0.25,0,0.46,0.2,0.46,0.46v4.68
			C17.77,22.06,17.57,22.27,17.31,22.27L17.31,22.27z M17.31,22.27"/>
		<path d="M22.05,17.26v2.7c0,0-2.34-3.05-2.37-3.09c-0.11-0.13-0.28-0.2-0.46-0.2c-0.32,0.01-0.56,0.29-0.56,0.61v4.4
			c0,0.32,0.26,0.59,0.59,0.59c0.32,0,0.59-0.26,0.59-0.59V19c0,0,2.37,3.08,2.41,3.11c0.1,0.1,0.24,0.16,0.4,0.16
			c0.32,0,0.59-0.28,0.59-0.61v-4.4c0-0.32-0.26-0.59-0.59-0.59C22.31,16.68,22.05,16.94,22.05,17.26L22.05,17.26z M22.05,17.26"/>
		<path d="M27.61,17.26c0-0.32-0.26-0.59-0.59-0.59h-2.34c-0.32,0-0.59,0.26-0.59,0.59v4.42c0,0.32,0.26,0.59,0.59,0.59h2.34
			c0.32,0,0.59-0.26,0.59-0.59c0-0.32-0.26-0.59-0.59-0.59h-1.76v-1.04h1.76c0.32,0,0.59-0.26,0.59-0.59c0-0.32-0.26-0.59-0.59-0.59
			h-1.76v-1.04h1.76C27.34,17.85,27.61,17.58,27.61,17.26L27.61,17.26z M27.61,17.26"/>
	</g>
</g>
<g id="圖層_3" class="st1">
	<g class="st2">
		<path d="M20,0C8.95,0,0,8.95,0,20c0,11.05,8.95,20,20,20c11.05,0,20-8.95,20-20C40,8.95,31.05,0,20,0L20,0z M27.63,10.18l-2.77,0
			c-2.17,0-2.59,1.03-2.59,2.54v3.33h5.17l0,5.23h-5.17v13.4h-5.39V21.29h-4.51v-5.22h4.51v-3.85c0-4.47,2.73-6.91,6.72-6.91
			l4.03,0.01L27.63,10.18L27.63,10.18z M27.63,10.18"/>
	</g>
</g>
<g id="圖層_2">
	<g>
		<path d="M20,24c2.21,0,4-1.79,4-4c0-0.87-0.28-1.68-0.76-2.33C22.52,16.66,21.34,16,20,16c-1.34,0-2.52,0.66-3.25,1.67
			C16.28,18.32,16,19.13,16,20C15.99,22.21,17.79,24,20,24L20,24z M20,24"/>
		<path d="M28.74,15.1v-3.85h-0.5l-3.36,0.01l0.02,3.85L28.74,15.1z M28.74,15.1"/>
		<path d="M20,0C8.97,0,0,8.97,0,20c0,11.03,8.97,20,20,20c11.03,0,20-8.97,20-20C40,8.97,31.03,0,20,0L20,0z M31.37,17.67v9.31
			c0,2.42-1.97,4.39-4.4,4.39H13.02c-2.42,0-4.39-1.97-4.39-4.39V13.02c0-2.43,1.97-4.4,4.39-4.4h13.96c2.43,0,4.4,1.97,4.4,4.4
			V17.67z M31.37,17.67"/>
		<path d="M26.22,20c0,3.43-2.79,6.22-6.22,6.22c-3.43,0-6.22-2.79-6.22-6.22c0-0.82,0.17-1.61,0.46-2.33h-3.39v9.31
			c0,1.2,0.97,2.18,2.18,2.18h13.96c1.2,0,2.18-0.97,2.18-2.18v-9.31h-3.4C26.06,18.39,26.22,19.18,26.22,20L26.22,20z M26.22,20"/>
	</g>
</g>
</svg>
