<?xml version="1.0" encoding="utf-8"?>
<!-- Generator: Adobe Illustrator 24.1.0, SVG Export Plug-In . SVG Version: 6.00 Build 0)  -->
<svg version="1.1" id="圖層_1" xmlns="http://www.w3.org/2000/svg" xmlns:xlink="http://www.w3.org/1999/xlink" x="0px" y="0px"
	 viewBox="0 0 40 40" style="enable-background:new 0 0 40 40;" xml:space="preserve">
<style type="text/css">
	.st0{fill:#FFFFFF;}
	.st1{fill:#DEA500;}
	.st2{display:none;}
	.st3{display:inline;}
</style>
<g id="圖層_4">
	<circle class="st0" cx="20" cy="20" r="20"/>
</g>
<g id="圖層_1_1_">
	<g>
		<path class="st1" d="M40,20C40,8.9,31,0,20,0S0,8.9,0,20s8.9,20,20,20c2.1,0,4.2-0.3,6.1-1l0,0c0.5-0.2,1-0.3,1.5-0.5
			c0.1-0.1,0.3-0.1,0.5-0.2c0.4-0.2,0.8-0.4,1.2-0.6c0.1-0.1,0.3-0.2,0.4-0.2c0.5-0.3,1-0.5,1.4-0.9c0.1-0.1,0.2-0.2,0.3-0.2
			c0.4-0.3,0.7-0.5,1.1-0.8c0.1-0.1,0.3-0.2,0.4-0.3c0.4-0.3,0.8-0.7,1.1-1c0,0,0.1-0.1,0.1-0.1c0.4-0.4,0.8-0.8,1.1-1.2
			c0.1-0.1,0.2-0.3,0.3-0.4c0.3-0.3,0.5-0.7,0.8-1c0.1-0.1,0.2-0.2,0.2-0.4c0.3-0.5,0.6-0.9,0.9-1.4c0.1-0.1,0.2-0.3,0.2-0.4
			c0.2-0.4,0.4-0.8,0.6-1.2c0.1-0.2,0.1-0.3,0.2-0.5c0.2-0.5,0.4-1,0.6-1.6c0-0.1,0.1-0.2,0.1-0.3c0.1-0.5,0.2-0.9,0.3-1.4
			c0-0.2,0.1-0.4,0.1-0.5c0-0.1,0.1-0.3,0.1-0.4l0,0C39.9,22.3,40,21.1,40,20z M31.4,19.7c0,0.2,0,0.4-0.1,0.7
			c-0.1,0.7-0.3,1.3-0.6,1.9c-0.1,0.2-0.2,0.4-0.3,0.6c-0.2,0.4-1.2,1.8-1.5,2.1c-0.1,0.1-0.2,0.2-0.3,0.4c-0.1,0.1-0.2,0.3-0.4,0.4
			c-0.1,0.1-0.3,0.3-0.5,0.5c-0.1,0.1-0.2,0.2-0.3,0.3c-0.2,0.1-0.4,0.3-0.5,0.5c-0.1,0.1-0.2,0.2-0.4,0.4c-0.2,0.2-0.4,0.3-0.6,0.5
			c-0.1,0.1-0.3,0.2-0.5,0.4c-0.2,0.2-0.4,0.3-0.7,0.5c-0.2,0.1-0.3,0.2-0.5,0.4c-0.2,0.1-0.5,0.3-0.7,0.5c-0.2,0.1-0.4,0.3-0.6,0.4
			c-0.2,0.1-0.5,0.3-0.8,0.5c-0.2,0.1-0.5,0.3-0.7,0.4c-0.3,0.1-0.6,0.3-0.9,0.5c-0.2,0.1-0.4,0.2-0.7,0.4v0c-0.1,0-0.2,0.1-0.3,0.1
			c-0.4,0.2-1-0.1-0.9-0.6L19,29c0-0.3-0.2-0.6-0.5-0.7c-5.6-0.6-9.9-4.4-9.9-9c0-5,5.1-9.1,11.4-9.1l0,0c0,0,0,0,0,0
			c0.8,0,1.5,0.1,2.2,0.2c0.4,0.1,0.7,0.1,1.1,0.2c4.5,1.1,7.9,4.4,8.1,8.3c0,0.1,0,0.3,0,0.5C31.5,19.5,31.5,19.6,31.4,19.7z"/>
		<path class="st1" d="M13.7,21.1v-3.8c0-0.3-0.3-0.6-0.6-0.6c-0.3,0-0.6,0.3-0.6,0.6v4.4c0,0.3,0.3,0.6,0.6,0.6h2.3
			c0.3,0,0.6-0.3,0.6-0.6c0-0.3-0.3-0.6-0.6-0.6H13.7z"/>
		<path class="st1" d="M17.3,22.3H17c-0.2,0-0.5-0.2-0.5-0.5v-4.7c0-0.2,0.2-0.5,0.5-0.5h0.3c0.2,0,0.5,0.2,0.5,0.5v4.7
			C17.8,22.1,17.6,22.3,17.3,22.3L17.3,22.3z"/>
		<path class="st1" d="M22,17.3V20c0,0-2.3-3-2.4-3.1c-0.1-0.1-0.3-0.2-0.5-0.2c-0.3,0-0.6,0.3-0.6,0.6v4.4c0,0.3,0.3,0.6,0.6,0.6
			c0.3,0,0.6-0.3,0.6-0.6V19c0,0,2.4,3.1,2.4,3.1c0.1,0.1,0.2,0.2,0.4,0.2c0.3,0,0.6-0.3,0.6-0.6v-4.4c0-0.3-0.3-0.6-0.6-0.6
			C22.3,16.7,22,16.9,22,17.3L22,17.3z"/>
		<path class="st1" d="M27.6,17.3c0-0.3-0.3-0.6-0.6-0.6h-2.3c-0.3,0-0.6,0.3-0.6,0.6v4.4c0,0.3,0.3,0.6,0.6,0.6H27
			c0.3,0,0.6-0.3,0.6-0.6c0-0.3-0.3-0.6-0.6-0.6h-1.8v-1H27c0.3,0,0.6-0.3,0.6-0.6c0-0.3-0.3-0.6-0.6-0.6h-1.8v-1H27
			C27.3,17.9,27.6,17.6,27.6,17.3L27.6,17.3z"/>
	</g>
</g>
<g id="圖層_3" class="st2">
	<g class="st3">
		<path d="M20,0C8.9,0,0,8.9,0,20s8.9,20,20,20s20-9,20-20S31,0,20,0L20,0z M27.6,10.2h-2.8c-2.2,0-2.6,1-2.6,2.5V16h5.2v5.2h-5.2
			v13.4h-5.4V21.3h-4.5v-5.2h4.5v-3.9c0-4.5,2.7-6.9,6.7-6.9l4,0V10.2L27.6,10.2z"/>
	</g>
</g>
<g id="圖層_2_1_" class="st2">
	<g class="st3">
		<path d="M20,24c2.2,0,4-1.8,4-4c0-0.9-0.3-1.7-0.8-2.3c-0.7-1-1.9-1.7-3.2-1.7s-2.5,0.7-3.2,1.7C16.3,18.3,16,19.1,16,20
			C16,22.2,17.8,24,20,24L20,24z"/>
		<path d="M28.7,15.1v-3.9h-0.5l-3.4,0l0,3.9L28.7,15.1z"/>
		<path d="M20,0C9,0,0,9,0,20s9,20,20,20s20-9,20-20S31,0,20,0L20,0z M31.4,17.7V27c0,2.4-2,4.4-4.4,4.4H13c-2.4,0-4.4-2-4.4-4.4V13
			c0-2.4,2-4.4,4.4-4.4h14c2.4,0,4.4,2,4.4,4.4L31.4,17.7L31.4,17.7z"/>
		<path d="M26.2,20c0,3.4-2.8,6.2-6.2,6.2s-6.2-2.8-6.2-6.2c0-0.8,0.2-1.6,0.5-2.3h-3.4V27c0,1.2,1,2.2,2.2,2.2h14
			c1.2,0,2.2-1,2.2-2.2v-9.3h-3.4C26.1,18.4,26.2,19.2,26.2,20L26.2,20z"/>
	</g>
</g>
</svg>
